<?xml version="1.0" standalone="no"?>
<!DOCTYPE svg PUBLIC "-//W3C//DTD SVG 20010904//EN"
 "http://www.w3.org/TR/2001/REC-SVG-20010904/DTD/svg10.dtd">
<svg version="1.0" xmlns="http://www.w3.org/2000/svg"
 width="300.000000pt" height="300.000000pt" viewBox="0 0 300.000000 300.000000"
 preserveAspectRatio="xMidYMid meet">
<metadata>
Created by potrace 1.14, written by Peter Selinger 2001-2017
</metadata>
<g transform="translate(0.000000,300.000000) scale(0.100000,-0.100000)"
fill="#000000" stroke="none">
<path d="M2107 2990 c-2 -8 -10 -35 -17 -60 -17 -64 -65 -156 -112 -217 -58
-76 -152 -162 -328 -300 -282 -220 -380 -344 -366 -460 7 -57 28 -94 80 -140
40 -35 160 -103 182 -103 4 0 -4 12 -17 28 -39 42 -60 101 -58 160 1 28 6 57
9 63 10 15 364 12 560 -6 97 -8 174 -16 205 -21 67 -11 91 -15 115 -19 14 -3
41 -7 60 -10 125 -20 296 -83 307 -113 13 -32 -75 -79 -184 -98 -15 -3 -75
-14 -133 -24 -58 -11 -121 -22 -140 -24 -19 -2 -57 -7 -85 -10 -107 -13 -133
-16 -215 -22 -47 -3 -105 -7 -130 -10 -132 -12 -176 -16 -180 -19 -3 -2 -26
-6 -50 -10 -25 -3 -80 -15 -122 -25 -460 -117 -711 -384 -724 -770 -8 -239 92
-441 299 -606 84 -67 265 -164 304 -164 37 0 44 29 27 111 -51 243 13 468 182
645 77 79 148 127 304 203 317 154 501 316 578 511 12 30 23 68 24 83 2 19 9
29 23 32 216 47 307 92 358 175 110 180 -176 336 -740 405 -24 3 -60 7 -80 10
-46 5 -171 14 -277 20 -43 3 -81 6 -83 9 -2 2 29 28 69 57 105 77 124 94 213
184 130 132 187 250 188 385 0 54 -6 87 -20 120 -13 29 -22 40 -26 30z"/>
<path d="M1187 2204 c-1 -1 -48 -5 -104 -9 -56 -3 -113 -8 -125 -10 -13 -2
-50 -6 -83 -10 -75 -8 -126 -15 -145 -20 -8 -3 -33 -7 -55 -11 -195 -29 -406
-104 -496 -175 -109 -86 -85 -201 60 -284 100 -57 324 -122 516 -149 210 -30
236 -32 249 -22 20 17 26 42 13 60 -12 16 -27 21 -102 30 -209 25 -433 107
-448 165 -10 39 80 84 240 120 144 33 210 43 436 65 35 3 36 5 43 57 7 53 22
91 58 147 14 23 26 43 26 45 0 3 -79 4 -83 1z"/>
<path d="M136 1608 c-12 -17 -14 -48 -11 -162 10 -385 151 -715 423 -989 113
-114 141 -114 166 4 14 64 15 326 2 379 -3 14 -11 49 -17 79 -6 30 -15 62 -19
70 -5 9 -16 39 -26 66 -29 86 -99 210 -163 289 -93 116 -284 286 -322 286 -10
0 -25 -10 -33 -22z"/>
<path d="M2813 1618 c-6 -7 -25 -42 -44 -78 -69 -132 -218 -256 -571 -474
-170 -106 -298 -195 -344 -241 -156 -157 -236 -370 -235 -629 1 -174 13 -198
87 -178 117 31 360 142 481 218 135 86 294 227 384 339 140 177 246 404 285
615 3 14 9 43 13 65 11 53 11 50 16 204 4 115 2 137 -12 153 -19 21 -46 23
-60 6z"/>
</g>
</svg>
